<?xml version="1.0" standalone="no"?>
<!DOCTYPE svg PUBLIC "-//W3C//DTD SVG 20010904//EN"
 "http://www.w3.org/TR/2001/REC-SVG-20010904/DTD/svg10.dtd">
<svg version="1.0" xmlns="http://www.w3.org/2000/svg"
 width="1024.000000pt" height="1024.000000pt" viewBox="0 0 1024.000000 1024.000000"
 preserveAspectRatio="xMidYMid meet">
<metadata>
Created by potrace 1.14, written by Peter Selinger 2001-2017
</metadata>
<g transform="translate(0.000000,1024.000000) scale(0.100000,-0.100000)"
fill="#000000" stroke="none">
<path d="M4705 9209 c-418 -36 -932 -161 -1293 -313 -514 -217 -984 -517
-1331 -850 -496 -476 -833 -987 -1056 -1601 -221 -611 -282 -1381 -160 -2045
108 -592 323 -1127 634 -1580 459 -669 1082 -1177 1846 -1505 439 -188 884
-298 1368 -336 188 -15 616 -6 792 15 849 105 1648 449 2282 984 301 255 567
552 775 867 357 542 592 1233 648 1905 13 156 13 581 0 717 -48 502 -192 1009
-415 1452 -339 678 -893 1269 -1572 1679 -164 99 -469 251 -643 320 -371 149
-813 253 -1235 292 -129 12 -496 11 -640 -1z m615 -390 c681 -61 1243 -258
1815 -634 520 -342 945 -789 1245 -1310 324 -561 489 -1293 450 -1988 -40
-710 -269 -1370 -672 -1929 -239 -332 -487 -582 -840 -844 -193 -143 -315
-219 -533 -330 -423 -214 -835 -339 -1345 -405 -131 -17 -216 -22 -410 -22
-270 1 -415 14 -692 63 -742 134 -1477 509 -2007 1025 -625 608 -995 1335
-1106 2175 -23 167 -31 615 -16 802 23 281 68 499 134 655 l35 83 -19 50 c-28
75 -41 215 -29 316 36 292 202 536 449 662 56 29 108 52 116 52 8 0 28 21 46
48 93 137 304 376 452 511 177 162 414 336 641 473 143 86 444 239 571 288
186 74 469 154 720 205 146 29 218 39 425 58 86 9 466 6 570 -4z"/>
<path d="M6784 8000 c-253 -52 -354 -360 -183 -554 97 -111 269 -147 396 -82
27 13 68 45 92 71 126 137 128 328 6 464 -71 78 -208 123 -311 101z"/>
<path d="M2595 7718 c-200 -74 -257 -332 -107 -482 61 -62 105 -80 197 -80 71
-1 86 2 135 30 129 73 183 218 136 362 -20 60 -81 128 -141 157 -47 23 -174
30 -220 13z"/>
<path d="M4743 7600 c-258 -32 -602 -138 -843 -260 -433 -219 -829 -607 -1045
-1022 -162 -313 -249 -589 -277 -877 l-12 -124 23 -18 c13 -11 38 -19 56 -19
18 0 44 -9 59 -21 21 -17 26 -29 26 -68 0 -62 -16 -81 -75 -92 -28 -5 -58 -18
-69 -28 -19 -19 -19 -23 -2 -177 20 -180 74 -411 136 -584 172 -480 520 -916
962 -1204 113 -74 361 -194 501 -244 197 -70 459 -130 637 -146 54 -5 70 -3
96 13 28 17 32 26 36 74 6 71 19 87 74 87 56 0 74 -19 74 -76 0 -114 48 -123
365 -68 447 76 852 255 1190 527 117 94 340 328 421 442 261 369 412 771 455
1213 14 142 9 155 -64 167 -71 12 -77 18 -77 85 0 75 20 100 80 100 31 0 43 5
56 26 16 24 16 33 0 152 -47 347 -156 665 -323 948 -170 287 -447 576 -738
769 -352 234 -842 408 -1211 432 -100 6 -102 5 -128 -20 -22 -22 -26 -35 -26
-81 0 -64 -13 -76 -79 -76 -55 0 -71 19 -71 84 0 88 -44 106 -207 86z m582
-476 c343 -49 733 -219 1005 -439 351 -283 582 -641 690 -1070 38 -148 50
-259 50 -449 0 -240 -30 -410 -116 -657 -131 -377 -427 -744 -795 -986 -247
-161 -481 -253 -794 -309 -138 -25 -478 -25 -620 -1 -773 134 -1383 654 -1618
1382 -72 223 -81 290 -81 575 0 228 2 266 22 360 98 445 301 799 628 1091 458
409 1038 588 1629 503z"/>
<path d="M4855 6909 c-213 -28 -439 -92 -598 -168 -110 -53 -299 -179 -402
-269 -107 -93 -275 -291 -275 -324 0 -4 144 -8 320 -8 l321 0 -3 -82 -3 -83
-103 -5 c-93 -4 -106 -7 -123 -28 -21 -27 -36 19 134 -407 134 -335 305 -768
398 -1012 41 -106 78 -191 84 -190 14 5 365 931 365 964 0 15 -73 206 -178
463 -69 169 -126 220 -249 220 l-43 0 0 80 0 80 560 0 561 0 -3 -82 -3 -83
-127 4 c-81 2 -128 0 -128 -7 0 -5 52 -146 116 -313 64 -167 158 -419 211
-559 171 -460 325 -865 333 -873 10 -11 67 136 245 626 l148 407 -46 108 c-25
59 -76 184 -113 277 -67 173 -91 221 -128 263 -31 36 -92 63 -152 69 l-54 6 0
78 0 79 310 0 c190 0 310 4 310 10 0 5 -43 58 -95 119 -346 401 -838 633
-1365 646 -85 2 -186 0 -225 -6z"/>
<path d="M3345 5723 c-46 -108 -84 -305 -92 -473 -15 -313 72 -658 237 -940
125 -214 337 -434 565 -587 64 -43 165 -97 171 -91 4 5 -749 1882 -835 2081
-11 26 -23 47 -26 47 -2 0 -12 -17 -20 -37z"/>
<path d="M6754 5653 c-4 -10 -28 -74 -55 -143 -26 -69 -66 -174 -87 -235 -117
-325 -467 -1243 -571 -1495 -17 -41 -31 -78 -31 -83 0 -28 194 117 306 230
198 199 330 388 411 594 147 367 169 733 66 1097 -15 53 -29 66 -39 35z"/>
<path d="M4933 4732 c-61 -169 -189 -511 -282 -760 -94 -249 -171 -456 -171
-461 0 -11 233 -68 334 -82 119 -15 453 -7 571 15 100 19 233 53 253 65 10 6
-13 74 -97 287 -106 269 -210 535 -396 1017 -49 125 -91 227 -94 227 -3 0 -56
-138 -118 -308z"/>
<path d="M7415 7406 c-186 -46 -297 -226 -250 -408 28 -109 87 -180 195 -231
163 -78 348 -10 432 160 28 57 32 74 31 141 -1 43 -8 96 -17 120 -40 110 -136
193 -253 217 -79 17 -73 17 -138 1z"/>
<path d="M2140 6745 c0 -262 -1 -278 -20 -302 -19 -24 -20 -41 -20 -294 l0
-269 43 0 c23 0 70 7 102 15 250 64 425 293 425 555 0 282 -202 515 -492 566
l-38 6 0 -277z"/>
<path d="M1433 5495 c-57 -24 -71 -88 -28 -130 l24 -25 426 0 c410 0 426 1
445 20 46 46 34 111 -25 136 -49 20 -794 20 -842 -1z"/>
<path d="M7734 5426 c-52 -23 -62 -91 -18 -125 26 -21 37 -21 455 -21 416 0
430 1 449 20 11 11 20 26 21 33 4 38 -5 64 -27 85 l-25 22 -412 0 c-323 -1
-419 -4 -443 -14z"/>
<path d="M1403 5153 c-3 -9 -1 -152 5 -317 9 -252 15 -320 35 -418 26 -121 82
-304 97 -313 5 -3 24 23 42 57 69 130 198 236 350 289 l83 28 3 339 2 339
-181 6 c-100 4 -238 7 -306 7 -106 0 -125 -2 -130 -17z"/>
<path d="M2245 5001 c-101 -42 -65 -211 45 -211 55 0 110 53 110 105 0 80 -81
136 -155 106z"/>
<path d="M7716 4979 c-35 -28 -36 -77 0 -110 l26 -24 424 0 423 0 23 22 c31
31 30 89 -1 114 -22 18 -48 19 -446 19 -412 0 -423 -1 -449 -21z"/>
<path d="M2252 4688 c-47 -12 -69 -65 -47 -108 30 -59 98 -68 146 -21 36 36
37 60 4 99 -28 34 -56 42 -103 30z"/>
<path d="M7710 4670 c-29 -29 -27 -84 5 -115 l24 -25 421 0 c283 0 428 4 442
11 23 12 52 74 42 92 -4 7 -16 22 -27 35 l-20 22 -434 0 c-420 0 -434 -1 -453
-20z"/>
<path d="M7922 4137 l-123 -162 66 -3 65 -3 2 -486 3 -487 78 115 c43 62 100
146 127 184 l49 70 1 302 0 302 61 3 62 3 -103 130 c-57 72 -112 145 -124 162
-12 18 -25 33 -31 33 -5 0 -65 -73 -133 -163z"/>
<path d="M7448 3798 l-126 -163 54 -3 54 -3 0 -582 0 -582 130 130 130 130 0
452 0 453 75 0 c41 0 75 2 75 5 0 7 -251 319 -259 323 -4 1 -64 -71 -133 -160z"/>
<path d="M6985 3085 c-107 -38 -143 -169 -74 -266 17 -25 19 -52 21 -367 l3
-340 123 76 122 76 0 280 c1 225 4 286 15 306 21 37 19 116 -6 159 -40 72
-127 104 -204 76z"/>
<path d="M6485 2857 c-48 -19 -74 -41 -95 -83 -26 -49 -26 -119 0 -169 19 -37
20 -59 20 -396 l0 -357 130 56 130 57 0 301 c0 279 1 305 20 345 67 148 -61
301 -205 246z"/>
<path d="M5955 2646 c-65 -28 -112 -117 -99 -187 4 -19 15 -51 25 -71 17 -34
19 -66 19 -368 0 -181 3 -330 6 -330 4 0 62 17 130 37 l124 37 0 302 c0 279 1
305 20 345 26 58 25 106 -3 160 -41 77 -140 111 -222 75z"/>
<path d="M5420 2467 c-80 -42 -107 -146 -62 -234 21 -41 22 -54 22 -348 0
-287 1 -306 18 -301 9 3 67 15 129 27 l112 22 4 291 c2 255 5 297 22 340 16
43 17 55 6 95 -30 113 -146 163 -251 108z"/>
<path d="M4902 2293 c-51 -25 -76 -68 -80 -140 -4 -50 0 -69 17 -98 20 -34 21
-50 21 -267 l0 -231 77 7 c42 3 100 6 130 6 l53 0 0 225 c0 210 1 229 21 267
42 82 8 192 -71 233 -38 20 -126 19 -168 -2z"/>
</g>
</svg>
